<svg xmlns="http://www.w3.org/2000/svg" width="440" height="334" viewBox="0 0 440 334">
  <path d="M 213.00,23.38 L 198.50,37.75 L 181.62,66.50 L 171.75,101.50 L 170.50,131.50 L 175.75,161.12 L 183.62,181.38 L 200.88,208.88 L 214.00,221.38 L 230.25,203.12 L 246.12,175.25 L 254.25,149.12 L 257.12,115.88 L 254.38,92.62 L 244.38,63.62 L 229.50,38.62 L 217.75,24.62 Z" fill="#e85a7a"/>
  <path d="M 407.25,124.88 L 402.38,121.62 L 382.62,122.62 L 343.62,131.75 L 305.50,150.50 L 275.88,174.50 L 253.50,202.50 L 238.62,230.88 L 227.38,270.50 L 224.88,303.62 L 263.00,301.25 L 300.25,290.25 L 335.38,270.25 L 358.25,250.50 L 380.38,222.50 L 393.50,197.00 L 406.00,153.00 Z" fill="#e85a7a"/>
  <path d="M 20.50,124.50 L 21.88,155.38 L 33.50,196.12 L 51.62,229.50 L 70.00,251.38 L 93.50,271.38 L 129.75,291.12 L 169.62,302.25 L 202.50,303.62 L 199.38,266.62 L 186.12,224.75 L 170.38,197.00 L 149.00,172.50 L 120.38,149.62 L 89.25,133.75 L 46.25,122.75 L 25.75,121.38 Z" fill="#e85a7a"/>
</svg>
