<?xml version="1.0" encoding="UTF-8"?>
<svg xmlns="http://www.w3.org/2000/svg" width="288" height="132" viewBox="0 0 288 132" role="img" aria-label="black wave logo" shape-rendering="geometricPrecision">
  <g fill="#000000" fill-rule="evenodd">
    <path d="M 111.00 35.00 L 111.00 38.00 L 114.00 39.00 L 127.00 39.00 L 152.00 48.00 L 166.00 56.00 L 168.00 59.00 L 170.00 59.00 L 185.00 70.00 L 189.00 70.00 L 194.00 73.00 L 222.00 73.00 L 229.00 70.00 L 234.00 70.00 L 238.00 67.00 L 254.00 61.00 L 255.00 59.00 L 268.00 52.00 L 267.00 50.00 L 242.00 50.00 L 231.00 47.00 L 223.00 47.00 L 217.00 44.00 L 203.00 41.00 L 181.00 30.00 L 177.00 30.00 L 171.00 27.00 L 162.00 27.00 L 158.00 25.00 L 133.00 27.00 L 127.00 30.00 L 113.00 33.00 Z"/>
    <path d="M 15.00 48.00 L 16.00 50.00 L 30.00 49.00 L 50.00 53.00 L 69.00 65.00 L 105.00 95.00 L 121.00 104.00 L 144.00 112.00 L 181.00 112.00 L 206.00 104.00 L 227.00 92.00 L 226.00 90.00 L 189.00 92.00 L 163.00 87.00 L 141.00 78.00 L 90.00 45.00 L 64.00 36.00 L 46.00 36.00 L 34.00 39.00 Z"/>
  </g>
</svg>
